<svg width="48" height="48" viewBox="0 0 48 48" fill="none" xmlns="http://www.w3.org/2000/svg">
<g filter="url(#filter0_d_190_1574)">
<path d="M23.9939 37.0239L20.5229 39.9238L18.2349 36.0039L13.9949 37.5159L13.1729 33.0359L8.67987 32.991L9.41187 28.491L5.20386 26.8909L7.41388 22.925L3.99988 19.96L7.41187 16.9929L5.2019 13.0278L9.41089 11.428L8.67786 6.93286L13.1719 6.88892L13.9939 2.40894L18.2339 3.91992L20.5219 0L23.9929 2.8999L27.4639 0L29.7529 3.9209L33.9929 2.40894L34.8139 6.88989L39.3079 6.93481L38.5759 11.4299L42.7839 13.03L40.5739 16.9958L43.9859 19.9609L40.5739 22.928L42.7829 26.894L38.5739 28.4939L39.3069 32.988L34.8119 33.033L33.9909 37.5139L29.7529 36.0029L27.4639 39.9229L23.9939 37.0239ZM25.1999 35.541L26.9609 37.012L28.1219 35.022L28.9139 33.666L30.3819 34.189L32.5329 34.957L32.9499 32.6838L33.2349 31.1289L34.7959 31.113L37.0779 31.092L36.7059 28.8098L36.4519 27.25L37.9109 26.696L40.0449 25.8828L38.9249 23.873L38.1589 22.498L39.3419 21.4709L41.0759 19.9609L39.3429 18.4609L38.1599 17.4319L38.9259 16.0559L40.0469 14.0449L37.9129 13.2339L36.4539 12.6809L36.7089 11.1208L37.0809 8.83984L34.7989 8.81689L33.2389 8.80103L32.9539 7.24683L32.5379 4.97388L30.3859 5.74097L28.9179 6.26392L28.1249 4.90698L26.9629 2.91699L25.2009 4.38794L23.9958 5.39282L22.7909 4.38794L21.0299 2.91699L19.8689 4.90601L19.0769 6.26294L17.6078 5.73999L15.4579 4.97192L15.0399 7.24585L14.7549 8.80005L13.1949 8.81592L10.9139 8.83789L11.2859 11.1199L11.5399 12.678L10.0809 13.2329L7.94586 14.0439L9.06689 16.0549L9.83289 17.4299L8.6499 18.459L6.91589 19.967L8.64886 21.4739L9.83185 22.5029L9.06586 23.8779L7.94489 25.8879L10.0779 26.698L11.5379 27.2529L11.2829 28.812L10.9119 31.0959L13.1929 31.1189L14.7529 31.135L15.0379 32.6899L15.4549 34.9619L17.6069 34.1948L19.0759 33.6719L19.8679 35.0288L21.0299 37.019L22.7909 35.5479L23.9958 34.543L25.1999 35.541ZM25.3179 23.02C25.3179 20.093 26.8829 18.4648 28.7769 18.4648C30.7829 18.4648 32.0769 20.0279 32.0769 22.7949C32.0769 25.8539 30.4919 27.3718 28.6619 27.3718C26.8829 27.3718 25.3379 25.922 25.3179 23.02ZM26.8389 22.9319C26.8159 24.7829 27.5209 26.1899 28.7109 26.1899C29.9879 26.1899 30.5609 24.8049 30.5609 22.8899C30.5609 21.1249 30.0539 19.6528 28.7109 19.6528C27.4999 19.6488 26.8389 21.1029 26.8389 22.9309V22.9319ZM19.1938 27.332L27.6089 12.613H28.8419L20.4269 27.332H19.1938ZM15.9789 16.99C15.9789 14.09 17.5419 12.458 19.4369 12.458C21.4369 12.458 22.7629 14.022 22.7629 16.79C22.7629 19.848 21.1769 21.365 19.3269 21.365C17.5439 21.365 15.9999 19.915 15.9789 16.991V16.99ZM17.5209 16.9238C17.4769 18.7748 18.1618 20.1809 19.3708 20.1829C20.6479 20.1829 21.2209 18.7988 21.2209 16.8828C21.2209 15.1168 20.7139 13.645 19.3708 13.645C18.1618 13.642 17.5209 15.092 17.5209 16.925V16.9238Z" fill="#F16D7F"/>
</g>
<defs>
<filter id="filter0_d_190_1574" x="-0.00012207" y="0" width="47.986" height="47.9238" filterUnits="userSpaceOnUse" color-interpolation-filters="sRGB">
<feFlood flood-opacity="0" result="BackgroundImageFix"/>
<feColorMatrix in="SourceAlpha" type="matrix" values="0 0 0 0 0 0 0 0 0 0 0 0 0 0 0 0 0 0 127 0" result="hardAlpha"/>
<feOffset dy="4"/>
<feGaussianBlur stdDeviation="2"/>
<feComposite in2="hardAlpha" operator="out"/>
<feColorMatrix type="matrix" values="0 0 0 0 0 0 0 0 0 0 0 0 0 0 0 0 0 0 0.25 0"/>
<feBlend mode="normal" in2="BackgroundImageFix" result="effect1_dropShadow_190_1574"/>
<feBlend mode="normal" in="SourceGraphic" in2="effect1_dropShadow_190_1574" result="shape"/>
</filter>
</defs>
</svg>
