<svg width="27" height="25" viewBox="0 0 27 25" fill="none" xmlns="http://www.w3.org/2000/svg">
<path d="M5.49872 22.185C5.5066 21.752 5.64116 21.3309 5.88544 20.9748C6.12972 20.6186 6.47285 20.3431 6.87183 20.1828C7.2708 20.0226 7.70784 19.9848 8.12805 20.0741C8.54826 20.1635 8.93294 20.376 9.23383 20.685C9.53472 20.994 9.73841 21.3857 9.81934 21.811C9.90026 22.2363 9.85477 22.6763 9.68866 23.0756C9.52255 23.475 9.2432 23.8161 8.88562 24.0559C8.52804 24.2957 8.10816 24.4237 7.67871 24.4237C7.3898 24.4211 7.10423 24.3611 6.83832 24.2472C6.5724 24.1333 6.33134 23.9676 6.12891 23.7597C5.92647 23.5518 5.76664 23.3057 5.65851 23.0355C5.55038 22.7653 5.49608 22.4763 5.49872 22.185ZM21.3047 24.4237C20.8714 24.4303 20.4456 24.3087 20.08 24.074C19.7143 23.8393 19.4249 23.5017 19.2474 23.103C19.0698 22.7042 19.0119 22.2618 19.0809 21.8303C19.1498 21.3988 19.3426 20.9971 19.6353 20.6748C19.9281 20.3524 20.308 20.1236 20.7282 20.0165C21.1484 19.9095 21.5905 19.929 21.9999 20.0724C22.4093 20.2159 22.7681 20.4771 23.032 20.8238C23.2958 21.1706 23.4532 21.5877 23.4847 22.0236C23.5272 22.6155 23.3372 23.2004 22.9557 23.6523C22.7709 23.8745 22.5438 24.0574 22.288 24.1901C22.0321 24.3227 21.7526 24.4025 21.4658 24.4247L21.3047 24.4237ZM8.59375 17.4855C8.38141 17.4851 8.17512 17.414 8.00696 17.2833C7.83879 17.1525 7.71816 16.9694 7.66376 16.7624L3.73676 2.19527H0.97876C0.719245 2.19527 0.470309 2.09128 0.286804 1.90622C0.1033 1.72116 0.000244141 1.47018 0.000244141 1.20847C0.000244141 0.946764 0.1033 0.695782 0.286804 0.510726C0.470309 0.325669 0.719245 0.22168 0.97876 0.22168H4.45776C4.67006 0.222254 4.87624 0.293463 5.04437 0.424184C5.2125 0.554905 5.3332 0.737883 5.38776 0.944787L9.31476 15.5119H20.0187L23.5767 7.12665H11.7188C11.4592 7.12665 11.2104 7.02266 11.0269 6.83761C10.8434 6.65255 10.7402 6.40157 10.7402 6.13986C10.7402 5.87815 10.8434 5.62717 11.0269 5.44211C11.2104 5.25705 11.4592 5.15306 11.7188 5.15306H25.0537C25.2134 5.15352 25.3703 5.19451 25.5101 5.27223C25.6499 5.34995 25.7681 5.46195 25.8538 5.59784C25.9416 5.73569 25.9947 5.89303 26.0087 6.05627C26.0226 6.21951 25.9969 6.38368 25.9337 6.53465L21.5427 16.8935C21.4692 17.0684 21.3465 17.2177 21.1897 17.3229C21.0329 17.4281 20.8491 17.4846 20.6608 17.4855H8.59375Z" fill="#EF5B70"/>
</svg>
